<svg xmlns:xlink="http://www.w3.org/1999/xlink" xmlns="http://www.w3.org/2000/svg" width="135" height="56" viewBox="0 0 135 56" fill="none"><rect width="135" height="56" rx="8" fill="#1A1C1F"></rect><path d="M30.382 19.968C31.9757 18.6911 33.9578 17.9968 36 18C38.125 18 40.078 18.736 41.618 19.968L43.071 18.515L44.485 19.929L43.032 21.382C44.3089 22.9758 45.0033 24.9578 45 27V28H27V27C27 24.875 27.736 22.922 28.968 21.382L27.515 19.93L28.929 18.516L30.382 19.969V19.968ZM27 30H45V37C45 37.2652 44.8946 37.5196 44.7071 37.7071C44.5196 37.8947 44.2652 38 44 38H28C27.7348 38 27.4804 37.8947 27.2929 37.7071C27.1054 37.5196 27 37.2652 27 37V30ZM33 25C33.2652 25 33.5196 24.8947 33.7071 24.7071C33.8946 24.5196 34 24.2652 34 24C34 23.7348 33.8946 23.4804 33.7071 23.2929C33.5196 23.1054 33.2652 23 33 23C32.7348 23 32.4804 23.1054 32.2929 23.2929C32.1054 23.4804 32 23.7348 32 24C32 24.2652 32.1054 24.5196 32.2929 24.7071C32.4804 24.8947 32.7348 25 33 25ZM39 25C39.2652 25 39.5196 24.8947 39.7071 24.7071C39.8946 24.5196 40 24.2652 40 24C40 23.7348 39.8946 23.4804 39.7071 23.2929C39.5196 23.1054 39.2652 23 39 23C38.7348 23 38.4804 23.1054 38.2929 23.2929C38.1054 23.4804 38 23.7348 38 24C38 24.2652 38.1054 24.5196 38.2929 24.7071C38.4804 24.8947 38.7348 25 39 25Z" fill="#FFFFFF"></path><path d="M61.025 23.81L62.615 28.01H59.435L61.025 23.81ZM56.12 32H57.935L58.865 29.525H63.185L64.115 32H65.93L61.835 21.5H60.2L56.12 32ZM66.9888 32H68.6238V28.685C68.6238 26.87 69.3888 25.79 70.6638 25.79C71.6238 25.79 72.2088 26.45 72.2088 27.395V32H73.8438V27.02C73.8438 25.385 72.7188 24.32 71.1138 24.32C70.0038 24.32 69.1338 24.89 68.6238 25.7V24.44H66.9888V32ZM78.9532 32.12C79.9582 32.12 80.8732 31.67 81.2332 31.04V32H82.8682V21.38H81.2332V25.385C80.7832 24.755 79.8982 24.32 78.9232 24.32C76.6432 24.32 75.3382 25.94 75.3382 28.22C75.3382 30.5 76.6432 32.12 78.9532 32.12ZM76.9732 28.22C76.9732 26.72 77.8432 25.745 79.1632 25.745C80.4832 25.745 81.3532 26.72 81.3532 28.22C81.3532 29.705 80.4832 30.695 79.1632 30.695C77.8432 30.695 76.9732 29.705 76.9732 28.22ZM89.471 26.03L89.561 24.455C89.336 24.365 89.006 24.32 88.721 24.32C87.806 24.32 86.816 24.98 86.411 25.88V24.44H84.776V32H86.411V29.18C86.411 26.84 87.386 25.85 88.496 25.85C88.841 25.85 89.201 25.91 89.471 26.03ZM93.9053 32.12C96.1703 32.12 97.8053 30.485 97.8053 28.22C97.8053 25.955 96.1703 24.32 93.9053 24.32C91.6253 24.32 90.0053 25.955 90.0053 28.22C90.0053 30.485 91.6253 32.12 93.9053 32.12ZM91.6553 28.22C91.6553 26.765 92.5553 25.745 93.9053 25.745C95.2403 25.745 96.1553 26.765 96.1553 28.22C96.1553 29.675 95.2403 30.695 93.9053 30.695C92.5553 30.695 91.6553 29.675 91.6553 28.22ZM99.2965 32H100.932V24.44H99.2965V32ZM99.2215 23.195H101.022V21.38H99.2215V23.195ZM106.061 32.12C107.066 32.12 107.981 31.67 108.341 31.04V32H109.976V21.38H108.341V25.385C107.891 24.755 107.006 24.32 106.031 24.32C103.751 24.32 102.446 25.94 102.446 28.22C102.446 30.5 103.751 32.12 106.061 32.12ZM104.081 28.22C104.081 26.72 104.951 25.745 106.271 25.745C107.591 25.745 108.461 26.72 108.461 28.22C108.461 29.705 107.591 30.695 106.271 30.695C104.951 30.695 104.081 29.705 104.081 28.22Z" fill="#FFFFFF"></path></svg>