<svg xmlns:xlink="http://www.w3.org/1999/xlink" xmlns="http://www.w3.org/2000/svg" viewBox="0 0 91 29" fill="none" width="100" height="32"><g clip-path="url(#clip0_7493:1109)" fill="none"><path fill-rule="evenodd" clip-rule="evenodd" d="M28.4863 0.185176C29.2193 -0.00232422 29.9883 -0.00782422 30.7353 0.0906758C31.5683 0.204676 32.3858 0.479176 33.0928 0.939676C33.0938 1.59468 33.0938 2.24968 33.0928 2.90468C32.6508 2.57018 32.1798 2.26768 31.6648 2.05868C30.9848 1.77418 30.2388 1.65618 29.5043 1.70968C29.1528 1.73918 28.7978 1.81568 28.4893 1.99168C28.2878 2.10518 28.1113 2.26818 28.0028 2.47418C27.8603 2.73418 27.8438 3.04518 27.8938 3.33268C27.9373 3.58718 28.0778 3.82018 28.2753 3.98568C28.5343 4.20618 28.8528 4.33768 29.1668 4.45768C29.8268 4.69768 30.4858 4.93868 31.1458 5.17818C31.7123 5.38868 32.2673 5.66168 32.7198 6.06868C33.1513 6.44968 33.4563 6.96918 33.5808 7.53168C33.7053 8.11018 33.7188 8.72218 33.5583 9.29568C33.4138 9.81418 33.1103 10.2847 32.7028 10.6352C32.2688 11.0137 31.7343 11.2632 31.1818 11.4122C30.4263 11.6122 29.6333 11.6392 28.8593 11.5567C27.8923 11.4482 26.9223 11.1697 26.1133 10.6147C26.1153 9.94868 26.1128 9.28318 26.1148 8.61718C27.0858 9.40018 28.3048 9.89618 29.5593 9.91118C30.0898 9.91918 30.6413 9.86668 31.1193 9.61968C31.3898 9.47918 31.6233 9.25318 31.7343 8.96518C31.8583 8.65068 31.8563 8.29168 31.7523 7.97168C31.6478 7.65418 31.3913 7.41268 31.1093 7.24718C30.6168 6.95618 30.0653 6.79268 29.5328 6.59468C28.8858 6.35518 28.2183 6.15618 27.6168 5.81118C27.1598 5.55468 26.7413 5.20968 26.4593 4.76318C26.0783 4.16318 25.9738 3.42568 26.0383 2.72818C26.1033 2.07318 26.4138 1.44568 26.9023 1.00368C27.3458 0.596176 27.9058 0.332176 28.4863 0.185176Z" fill="#C9CFD4"></path><path fill-rule="evenodd" clip-rule="evenodd" d="M72.7797 0.67711C73.5432 0.187611 74.4697 0.0036105 75.3677 0.0251105C76.4857 0.0346105 77.6182 0.322111 78.5592 0.936611C78.5572 1.59011 78.5607 2.24361 78.5577 2.89761C78.1522 2.59261 77.7242 2.31311 77.2592 2.10761C76.4532 1.74761 75.5432 1.60361 74.6687 1.74011C74.2017 1.82011 73.7027 2.02711 73.4672 2.46461C73.2217 2.94161 73.2992 3.59561 73.7137 3.95661C74.0332 4.24011 74.4452 4.38311 74.8407 4.52761C75.4902 4.76711 76.1437 4.99711 76.7912 5.24111C77.3682 5.47311 77.9317 5.77861 78.3612 6.23661C78.7577 6.65011 79.0047 7.19411 79.0892 7.75861C79.1802 8.37461 79.1567 9.02461 78.9112 9.60461C78.7052 10.1001 78.3462 10.5271 77.9057 10.8316C77.3902 11.1946 76.7817 11.4041 76.1642 11.5091C75.3042 11.6506 74.4197 11.6076 73.5687 11.4286C72.8622 11.2731 72.1662 11.0191 71.5702 10.6026C71.5732 9.93711 71.5692 9.27161 71.5727 8.60561C72.3327 9.21611 73.2367 9.66011 74.2017 9.82511C74.6192 9.90111 75.0467 9.91861 75.4707 9.89461C75.9007 9.86111 76.3422 9.77411 76.7102 9.53711C76.9947 9.35811 77.2077 9.06211 77.2652 8.72861C77.3362 8.33861 77.2697 7.90111 77.0042 7.59311C76.7712 7.32011 76.4432 7.15711 76.1222 7.01211C75.5967 6.78761 75.0517 6.61461 74.5167 6.41561C73.9992 6.23211 73.4777 6.04461 73.0047 5.76111C72.5687 5.50411 72.1727 5.16261 71.9057 4.72911C71.6402 4.30061 71.5122 3.79811 71.4892 3.29711C71.4612 2.84311 71.5182 2.37861 71.6932 1.95661C71.9062 1.42761 72.3022 0.98311 72.7797 0.67711Z" fill="#C9CFD4"></path><path fill-rule="evenodd" clip-rule="evenodd" d="M84.9682 0.304858C85.4992 0.114858 86.0657 0.0218583 86.6297 0.0243583C87.7817 0.00535835 88.9542 0.279858 89.9352 0.896358C89.9762 0.913358 89.9902 0.955358 89.9862 0.998358C89.9857 1.63036 89.9857 2.26286 89.9862 2.89486C89.5362 2.55086 89.0512 2.24686 88.5247 2.03486C87.8632 1.76586 87.1397 1.65136 86.4277 1.69936C86.0657 1.72686 85.7002 1.80486 85.3827 1.98636C85.1527 2.11636 84.9557 2.31386 84.8557 2.56036C84.6647 3.03836 84.7657 3.65186 85.1792 3.98336C85.6282 4.34836 86.2037 4.48736 86.7332 4.69386C87.3527 4.93036 87.9897 5.12536 88.5942 5.40036C89.1482 5.66136 89.6737 6.01986 90.0327 6.52386C90.4227 7.06186 90.5767 7.73936 90.5697 8.39586C90.5812 8.98136 90.4267 9.57586 90.0982 10.0639C89.7687 10.5589 89.2777 10.9319 88.7377 11.1714C88.1592 11.4304 87.5267 11.5519 86.8967 11.5839C86.1932 11.6184 85.4842 11.5489 84.7997 11.3814C84.1702 11.2214 83.5492 10.9844 83.0152 10.6089C82.9947 9.94186 83.0117 9.27286 83.0067 8.60536C83.9797 9.39136 85.2027 9.89036 86.4612 9.90286C87.0047 9.91186 87.5727 9.85586 88.0567 9.59036C88.3077 9.44936 88.5247 9.23436 88.6312 8.96286C88.7557 8.64136 88.7547 8.27486 88.6452 7.94936C88.5382 7.64236 88.2907 7.40786 88.0172 7.24536C87.5152 6.94786 86.9517 6.78136 86.4087 6.57986C85.7632 6.34036 85.0967 6.14136 84.4977 5.79486C84.0167 5.52036 83.5782 5.14686 83.3007 4.66136C82.9997 4.14086 82.8987 3.52686 82.9197 2.93236C82.9407 2.37886 83.1167 1.82786 83.4507 1.38336C83.8262 0.874358 84.3787 0.518858 84.9682 0.304858Z" fill="#C9CFD4"></path><path fill-rule="evenodd" clip-rule="evenodd" d="M45.8359 0.03125C48.3964 2.47175 50.9529 4.91675 53.5139 7.35625C53.5179 4.97325 53.5134 2.59075 53.5159 0.20775C54.1264 0.20775 54.7364 0.20775 55.3469 0.20725C55.3479 4.00575 55.3484 7.80425 55.3469 11.6027C53.6224 9.92475 51.8949 8.24975 50.1704 6.57275C49.3354 5.76725 48.5099 4.95175 47.6704 4.15075C47.6644 6.57375 47.6734 8.99675 47.6654 11.4193C47.0559 11.4153 46.4464 11.4188 45.8369 11.4178C45.8349 7.62225 45.8374 3.82675 45.8359 0.03125Z" fill="#C9CFD4"></path><path fill-rule="evenodd" clip-rule="evenodd" d="M0.571063 0.208024C1.55106 0.208024 2.53106 0.208024 3.51056 0.208024C4.19906 0.214024 4.89306 0.177024 5.57456 0.295524C6.22156 0.404524 6.86706 0.636024 7.36806 1.07152C7.77706 1.42052 8.06156 1.90552 8.18406 2.42802C8.31706 3.01502 8.31806 3.64302 8.13006 4.21802C7.93056 4.83602 7.47556 5.38402 6.86306 5.62402C6.96456 5.69052 7.08206 5.72252 7.18806 5.78102C7.74606 6.06702 8.18906 6.56152 8.42956 7.13952C8.61656 7.57602 8.67156 8.06002 8.63006 8.53052C8.58756 9.13752 8.38856 9.74452 8.00006 10.2195C7.56206 10.7635 6.91206 11.0985 6.24206 11.262C5.66556 11.4075 5.06756 11.427 4.47556 11.418C3.17406 11.4175 1.87256 11.418 0.571063 11.4175C0.570062 7.68102 0.570062 3.94452 0.571063 0.208024ZM2.41956 1.85702C2.42206 2.87702 2.41456 3.89652 2.42306 4.91552C3.17356 4.90902 3.92456 4.91752 4.67506 4.91152C5.14806 4.88852 5.65306 4.79602 6.01906 4.47352C6.28906 4.23752 6.42256 3.88052 6.44456 3.52902C6.47206 3.14302 6.40856 2.72352 6.15306 2.41852C5.92756 2.14502 5.58456 2.00052 5.24456 1.93102C4.86056 1.85202 4.46706 1.85752 4.07706 1.85702C3.52456 1.85702 2.97206 1.85602 2.41956 1.85702ZM2.41906 6.49652C2.42006 7.58702 2.41906 8.67752 2.41956 9.76852C3.21656 9.76952 4.01356 9.76852 4.81006 9.76902C5.26256 9.76402 5.73406 9.69052 6.11906 9.43802C6.44706 9.22802 6.67506 8.87702 6.74256 8.49452C6.81856 8.07652 6.77456 7.62152 6.55006 7.25402C6.36906 6.95502 6.06806 6.74452 5.74156 6.63302C5.44256 6.53002 5.12456 6.49052 4.80956 6.49552C4.01306 6.49702 3.21606 6.49502 2.41906 6.49652Z" fill="#C9CFD4"></path><path fill-rule="evenodd" clip-rule="evenodd" d="M12.6973 0.208984C13.3298 0.208984 13.9629 0.208984 14.5954 0.208984C14.5959 2.13798 14.5954 4.06698 14.5959 5.99598C14.5969 6.67548 14.5688 7.36548 14.7368 8.02998C14.8663 8.57148 15.1379 9.10048 15.5924 9.43798C16.0413 9.77548 16.6153 9.89648 17.1678 9.89598C17.7293 9.89898 18.3173 9.77998 18.7718 9.43298C19.1533 9.14948 19.4048 8.72398 19.5503 8.27798C19.7213 7.74798 19.7654 7.18548 19.7594 6.63148C19.7599 4.49048 19.7589 2.34998 19.7603 0.208984C20.3928 0.208984 21.0253 0.208984 21.6583 0.208984C21.6583 2.43798 21.6583 4.66698 21.6583 6.89598C21.6733 7.81448 21.5163 8.75648 21.0733 9.56998C20.6908 10.2825 20.0638 10.8545 19.3259 11.181C18.4864 11.5555 17.5458 11.6515 16.6368 11.5785C16.0013 11.524 15.3684 11.3665 14.8039 11.064C14.3899 10.8435 14.0144 10.5475 13.7134 10.187C13.3554 9.76398 13.1009 9.25948 12.9394 8.72998C12.7564 8.12598 12.6894 7.49098 12.6969 6.86098C12.6974 4.64348 12.6963 2.42648 12.6973 0.208984Z" fill="#C9CFD4"></path><path fill-rule="evenodd" clip-rule="evenodd" d="M38.5436 0.207031C39.1751 0.211031 39.8071 0.208031 40.4391 0.209031C40.4431 3.94353 40.4346 7.67903 40.4431 11.414C39.8091 11.4255 39.1751 11.4155 38.5416 11.419C38.5416 7.68203 38.5371 3.94453 38.5436 0.207031Z" fill="#C9CFD4"></path><path fill-rule="evenodd" clip-rule="evenodd" d="M60.3986 0.205078C62.6566 0.211578 64.9151 0.206078 67.1736 0.208078C67.1741 0.771078 67.1736 1.33458 67.1736 1.89858C65.5356 1.89908 63.8981 1.89808 62.2601 1.89858C62.2596 2.79258 62.2596 3.68608 62.2601 4.58008C63.7286 4.58108 65.1971 4.58008 66.6651 4.58008C66.6661 5.13558 66.6661 5.69058 66.6651 6.24608C65.1971 6.24658 63.7286 6.24558 62.2601 6.24658C62.2596 7.40108 62.2596 8.55558 62.2601 9.71058C63.8976 9.71108 65.5356 9.71108 67.1726 9.71058C67.1746 10.2796 67.1736 10.8486 67.1731 11.4181C64.9151 11.4191 62.6561 11.4151 60.3976 11.4201C60.3896 8.39108 60.3966 5.36108 60.3941 2.33158C60.3971 1.62258 60.3886 0.913578 60.3986 0.205078Z" fill="#C9CFD4"></path><path fill-rule="evenodd" clip-rule="evenodd" d="M15.3483 17.0508C17.8893 19.4558 20.4298 21.8618 22.9733 24.2643C22.9763 21.9198 22.9738 19.5753 22.9753 17.2313C23.5798 17.2313 24.1853 17.2313 24.7898 17.2313C24.7908 20.9653 24.7898 24.6993 24.7908 28.4338C22.2458 25.9943 19.7113 23.5443 17.1698 21.1018C17.1698 23.4873 17.1703 25.8723 17.1693 28.2578C16.5613 28.2578 15.9538 28.2588 15.3463 28.2578C15.3473 24.5218 15.3433 20.7863 15.3483 17.0508Z" fill="#C9CFD4"></path><path fill-rule="evenodd" clip-rule="evenodd" d="M31.2524 17.451C31.9714 17.122 32.7754 17.0159 33.5604 17.0514C34.6089 17.0914 35.6609 17.3714 36.5484 17.9399C36.5509 18.5864 36.5499 19.233 36.5494 19.879C36.1049 19.5445 35.6304 19.2434 35.1129 19.0359C34.4294 18.7549 33.6794 18.6429 32.9439 18.7025C32.5944 18.737 32.2414 18.8175 31.9374 18.9995C31.7094 19.134 31.5194 19.3409 31.4294 19.5924C31.2854 20.0174 31.3544 20.5424 31.6874 20.8634C31.9454 21.1214 32.2894 21.264 32.6244 21.3935C33.2924 21.6365 33.9614 21.876 34.6299 22.118C35.1604 22.3125 35.6789 22.5649 36.1129 22.9329C36.5379 23.2899 36.8579 23.7724 36.9999 24.311C37.1404 24.856 37.1684 25.435 37.0519 25.987C36.9399 26.52 36.6599 27.0155 36.2614 27.387C35.8434 27.7885 35.3104 28.0535 34.7574 28.2144C34.0674 28.418 33.3399 28.4565 32.6249 28.413C31.8844 28.3625 31.1479 28.2059 30.4619 27.9194C30.1684 27.7915 29.8764 27.6505 29.6179 27.459C29.6244 26.8035 29.6184 26.148 29.6214 25.492C30.5894 26.273 31.8094 26.76 33.0604 26.7695C33.5944 26.777 34.1514 26.72 34.6279 26.4605C34.9049 26.3085 35.1369 26.06 35.2299 25.7545C35.3224 25.45 35.3134 25.1124 35.1989 24.8149C35.0779 24.5044 34.8099 24.2794 34.5259 24.1205C34.0394 23.8495 33.5029 23.688 32.9824 23.497C32.3894 23.2775 31.7789 23.0949 31.2194 22.7944C30.7154 22.5289 30.2489 22.1625 29.9449 21.6745C29.6384 21.1835 29.5184 20.5955 29.5279 20.022C29.5244 19.4785 29.6774 18.9299 29.9869 18.4809C30.2974 18.0234 30.7524 17.6785 31.2524 17.451Z" fill="#C9CFD4"></path><path fill-rule="evenodd" clip-rule="evenodd" d="M8.0672 17.2324C8.6997 17.2324 9.3322 17.2324 9.9652 17.2324C9.9652 20.9079 9.9652 24.5834 9.9652 28.2589C9.3322 28.2599 8.6997 28.2595 8.0672 28.2589C8.0667 24.5834 8.0657 20.9079 8.0672 17.2324Z" fill="#C9CFD4"></path><path fill-rule="evenodd" clip-rule="evenodd" d="M41.9889 17.2326C42.6189 17.2326 43.2489 17.2321 43.8789 17.2326C43.8789 20.9081 43.8789 24.5836 43.8789 28.2591C43.2489 28.2601 42.6189 28.2591 41.9889 28.2591C41.9884 24.5836 41.9879 20.9081 41.9889 17.2326Z" fill="#C9CFD4"></path><path fill-rule="evenodd" clip-rule="evenodd" d="M49.3766 17.2324C50.8336 17.2324 52.2901 17.2324 53.7471 17.2324C54.8781 17.2474 56.0316 17.5429 56.9556 18.2144C57.7376 18.7714 58.3216 19.5844 58.6466 20.4839C58.9186 21.2299 59.0281 22.0279 59.0211 22.8199C59.0111 23.9509 58.7496 25.1059 58.1201 26.0584C57.6011 26.8609 56.8221 27.4854 55.9361 27.8394C55.2436 28.1204 54.4951 28.2494 53.7501 28.2599C52.2921 28.2589 50.8341 28.2599 49.3766 28.2589C49.376 24.5834 49.3756 20.9079 49.3766 17.2324ZM51.2581 18.8904C51.2586 21.4554 51.2586 24.0199 51.2581 26.5849C51.8556 26.5859 52.4526 26.5849 53.0501 26.5854C53.4161 26.5829 53.7841 26.5984 54.1491 26.5504C54.8436 26.4694 55.5326 26.2039 56.0446 25.7169C56.4991 25.2934 56.7991 24.7244 56.9571 24.1284C57.1126 23.5399 57.1526 22.9249 57.1126 22.3189C57.0756 21.7749 56.9641 21.2314 56.7361 20.7334C56.5186 20.2534 56.1821 19.8234 55.7511 19.5174C55.2556 19.1584 54.6521 18.9739 54.0481 18.9149C53.6831 18.8774 53.3161 18.8929 52.9506 18.8894C52.3866 18.8899 51.8221 18.8889 51.2581 18.8904Z" fill="#C9CFD4"></path><path fill-rule="evenodd" clip-rule="evenodd" d="M62.9857 17.2315C65.2307 17.2305 67.4762 17.2325 69.7217 17.2305C69.7247 17.7835 69.7222 18.336 69.7227 18.8885C68.0957 18.889 66.4692 18.8885 64.8427 18.8885C64.8437 19.772 64.8397 20.655 64.8447 21.5385C66.3012 21.536 67.7577 21.5375 69.2147 21.5375C69.2167 22.08 69.2117 22.623 69.2167 23.1655C67.7592 23.1755 66.3007 23.1665 64.8422 23.17C64.8422 24.308 64.8422 25.446 64.8422 26.5845C66.4692 26.5845 68.0957 26.584 69.7227 26.5845C69.7232 27.1425 69.7232 27.7 69.7222 28.258C67.4767 28.2585 65.2307 28.259 62.9857 28.258C62.9852 24.5825 62.9852 20.907 62.9857 17.2315Z" fill="#C9CFD4"></path><path fill-rule="evenodd" clip-rule="evenodd" d="M75.3368 17.2324C76.7128 17.2329 78.0893 17.2324 79.4658 17.2329C80.1498 17.2464 80.8453 17.3569 81.4638 17.6599C81.9528 17.8934 82.3833 18.2594 82.6678 18.7234C83.0068 19.2689 83.1433 19.9219 83.1323 20.5589C83.1378 21.2109 83.0288 21.8849 82.6923 22.4529C82.4408 22.8799 82.0488 23.2144 81.5998 23.4194C81.2733 23.5719 80.9218 23.6624 80.5668 23.7204C81.8948 25.2334 83.2248 26.7444 84.5513 28.2589C83.8358 28.2609 83.1203 28.2594 82.4048 28.2594C81.1158 26.7694 79.8308 25.2759 78.5403 23.7874C78.0998 23.7879 77.6588 23.7869 77.2188 23.7879C77.2158 25.2789 77.2228 26.7699 77.2148 28.2614C76.5888 28.2579 75.9623 28.2609 75.3363 28.2594C75.3363 24.5839 75.3353 20.9084 75.3368 17.2324ZM77.2188 18.8569C77.2178 19.9784 77.2178 21.0999 77.2188 22.2214C77.9453 22.2214 78.6728 22.2214 79.3998 22.2214C79.8938 22.2129 80.4128 22.0834 80.7843 21.7419C81.0368 21.5119 81.1933 21.1894 81.2443 20.8539C81.3078 20.4304 81.2498 19.9739 81.0128 19.6094C80.7908 19.2619 80.4153 19.0379 80.0208 18.9404C79.6228 18.8329 79.2078 18.8594 78.8008 18.8569C78.2733 18.8569 77.7458 18.8564 77.2188 18.8569Z" fill="#C9CFD4"></path></g><defs><clipPath id="clip0_7493:1109"><rect width="90" height="29" fill="white" transform="translate(0.570312)"></rect></clipPath></defs></svg>