<svg xmlns:xlink="http://www.w3.org/1999/xlink" xmlns="http://www.w3.org/2000/svg" width="101" height="56" viewBox="0 0 101 56" fill="none"><rect width="101" height="56" rx="8" fill="#1A1C1F"></rect><path d="M52.96 33H54.595V25.44H52.96V33ZM52.885 24.195H54.685V22.38H52.885V24.195ZM61.3742 33.12C64.4042 33.12 66.6242 30.855 66.6242 27.75C66.6242 24.645 64.4042 22.38 61.3742 22.38C58.3442 22.38 56.1242 24.645 56.1242 27.75C56.1242 30.855 58.3442 33.12 61.3742 33.12ZM57.8942 27.75C57.8942 25.53 59.3492 23.91 61.3742 23.91C63.3992 23.91 64.8542 25.53 64.8542 27.75C64.8542 29.97 63.3992 31.575 61.3742 31.575C59.3492 31.575 57.8942 29.97 57.8942 27.75ZM71.6047 33.12C73.9597 33.12 75.5047 31.905 75.5047 30.075C75.5047 25.845 69.7447 27.315 69.7447 25.2C69.7447 24.39 70.4347 23.91 71.5747 23.91C72.7747 23.91 73.5997 24.585 73.8097 25.65L75.3847 25.005C75.0847 23.43 73.5397 22.38 71.5747 22.38C69.5197 22.38 67.9747 23.535 67.9747 25.2C67.9747 28.98 73.7197 27.615 73.7197 30.105C73.7197 31.005 72.9097 31.59 71.6647 31.59C70.4047 31.59 69.3697 30.705 69.1897 29.355L67.5847 29.85C67.8847 31.77 69.5647 33.12 71.6047 33.12Z" fill="#FFFFFF"></path><path d="M35.6245 21.122C34.7485 21.122 33.3925 20.126 31.9646 20.162C30.0806 20.186 28.3525 21.254 27.3805 22.946C25.4245 26.342 26.8765 31.358 28.7845 34.118C29.7205 35.462 30.8245 36.974 32.2885 36.926C33.6925 36.866 34.2205 36.014 35.9245 36.014C37.6165 36.014 38.0965 36.926 39.5845 36.89C41.0965 36.866 42.0565 35.522 42.9805 34.166C44.0485 32.606 44.4925 31.094 44.5166 31.01C44.4806 30.998 41.5766 29.882 41.5406 26.522C41.5166 23.714 43.8326 22.37 43.9405 22.31C42.6206 20.378 40.5925 20.162 39.8845 20.114C38.0365 19.97 36.4885 21.122 35.6245 21.122ZM38.7445 18.29C39.5245 17.354 40.0405 16.046 39.8965 14.75C38.7805 14.798 37.4365 15.494 36.6325 16.43C35.9125 17.258 35.2885 18.59 35.4565 19.862C36.6925 19.958 37.9646 19.226 38.7445 18.29Z" fill="#FFFFFF"></path></svg>