<svg xmlns:xlink="http://www.w3.org/1999/xlink" xmlns="http://www.w3.org/2000/svg" width="32" height="32" viewBox="0 0 32 32" fill="none"><path fill-rule="evenodd" clip-rule="evenodd" d="M16 32C24.8366 32 32 24.8366 32 16C32 7.16344 24.8366 0 16 0C7.16344 0 0 7.16344 0 16C0 24.8366 7.16344 32 16 32ZM13.5097 10.6126L21.6902 15.6119C21.7567 15.6525 21.8116 15.7095 21.8497 15.7774C21.8877 15.8453 21.9077 15.9219 21.9077 15.9998C21.9077 16.0776 21.8877 16.1542 21.8497 16.2221C21.8116 16.29 21.7567 16.347 21.6902 16.3876L13.5097 21.387C13.4408 21.4291 13.362 21.4521 13.2812 21.4536C13.2005 21.4551 13.1208 21.4351 13.0504 21.3956C12.9799 21.3561 12.9213 21.2985 12.8805 21.2288C12.8397 21.1592 12.8182 21.0799 12.8182 20.9991V11.0004C12.8182 10.9197 12.8397 10.8404 12.8805 10.7707C12.9213 10.701 12.9799 10.6435 13.0504 10.604C13.1208 10.5645 13.2005 10.5444 13.2812 10.5459C13.362 10.5475 13.4408 10.5705 13.5097 10.6126Z" fill="#FFFFFF"></path></svg>