<svg xmlns:xlink="http://www.w3.org/1999/xlink" xmlns="http://www.w3.org/2000/svg" width="48" height="48" viewBox="0 0 48 48" fill="none"><path d="M24 48C37.2548 48 48 37.2548 48 24C48 10.7452 37.2548 0 24 0C10.7452 0 0 10.7452 0 24C0 37.2548 10.7452 48 24 48Z" fill="#2CA01C"></path><path fill-rule="evenodd" clip-rule="evenodd" d="M10.3633 23.8212C10.3633 27.9825 13.7367 31.3559 17.898 31.3559H18.9744V28.5573H17.898C15.2863 28.5573 13.1619 26.433 13.1619 23.8212C13.1619 21.2099 15.2863 19.0851 17.898 19.0851H20.4844V33.724C20.4844 35.2697 21.7373 36.5226 23.283 36.5226V16.2865H17.898C13.7367 16.2865 10.3633 19.6603 10.3633 23.8212ZM30.819 16.2878H29.7426V19.0864H30.819C33.4299 19.0864 35.5551 21.2112 35.5551 23.8225C35.5551 26.4338 33.4299 28.5586 30.819 28.5586H28.2314V13.9197C28.2314 12.374 26.9784 11.1211 25.4327 11.1211V31.3572H30.819C34.9799 31.3572 38.3537 27.9838 38.3537 23.8225C38.3537 19.6612 34.9799 16.2878 30.819 16.2878Z" fill="#FFFFFF"></path></svg>