<svg xmlns:xlink="http://www.w3.org/1999/xlink" xmlns="http://www.w3.org/2000/svg" width="48" height="48" viewBox="0 0 48 48" fill="none"><path d="M0 24C0 10.7452 10.7452 0 24 0C37.2548 0 48 10.7452 48 24C48 37.2548 37.2548 48 24 48C10.7452 48 0 37.2548 0 24Z" fill="#00DC00"></path><path d="M33.3804 23.7171C33.3804 22.255 34.4883 21.5483 35.6831 21.5483C36.8775 21.5483 37.9549 22.2672 37.9549 23.7171H33.3804ZM35.4718 20.0001C33.037 20.0001 31.4434 21.6705 31.4434 24.4254C31.4434 27.845 33.8809 28.8262 35.6218 28.8262C37.8269 28.8262 39.0842 27.3439 39.0842 27.3439L37.9623 26.2192C37.3672 26.7539 36.6771 27.0737 35.6493 27.0737C34.2924 27.0737 33.3777 26.2798 33.3777 25.1939H39.4247C39.4247 25.1939 40.4805 20.0001 35.4718 20.0001Z" fill="#FFFFFF"></path><path d="M13.201 23.57C12.4274 23.4734 10.1862 23.5604 10.1862 22.5391C10.1862 21.9337 11.1255 21.608 11.9917 21.608C13.3757 21.608 14.2878 22.1613 14.5531 22.3452L15.7158 21.1825C15.3715 20.9046 14.0898 20.0004 11.9917 20.0004C10.0799 20.0004 8.36007 21 8.36007 22.603C8.36007 25.0626 11.328 25.0619 12.5673 25.183C13.318 25.2563 14.0034 25.3079 14.0034 26.0439C14.0034 26.7281 12.9552 27.1088 12.1436 27.1088C10.8212 27.1088 10.0287 26.6742 9.25318 25.9772L8.00195 27.2298C9.14967 28.338 10.6036 28.8262 12.036 28.8262C14.2544 28.8262 15.876 27.8472 15.876 25.8775C15.876 24.5719 14.9985 23.7946 13.201 23.57Z" fill="#FFFFFF"></path><path d="M21.5375 25.5699C21.5375 27.2045 20.3726 27.1165 19.3322 27.1165C18.2792 27.1165 17.6067 26.8359 17.6067 26.1032C17.6067 25.4203 18.1544 25.1939 19.2861 25.1939H21.5375V25.5699ZM19.5908 20.0001C17.6617 20.0001 16.4111 20.9822 16.1784 21.1805L17.3478 22.3499C17.5807 22.165 18.3742 21.6176 19.6056 21.6176C21.0832 21.6176 21.5243 22.2068 21.5243 22.8731V23.703L18.8903 23.7045C17.9166 23.7045 16.001 23.9498 16.001 26.0931C16.001 27.6674 16.9039 28.8262 19.0595 28.8262C20.1416 28.8262 20.9598 28.4754 21.5243 27.7992V28.6537H23.4363V23C23.4363 21.0226 22.2239 20.0001 19.5908 20.0001Z" fill="#FFFFFF"></path><path d="M29.3402 24.4083C29.3402 25.0671 29.3293 25.555 29.2762 25.8035C29.1587 26.3524 28.5348 27.0737 27.4026 27.0737C27.1191 27.0737 25.6665 26.9111 25.5038 25.6528C25.471 25.4009 25.4461 25.0671 25.4461 24.4083C25.4461 23.4284 25.4864 23.1171 25.5366 22.8681C25.6367 22.3747 26.2819 21.6488 27.4026 21.6488C28.7748 21.6488 29.2156 22.5838 29.2801 22.9451C29.3248 23.1952 29.3402 23.7494 29.3402 24.4083ZM29.3402 20.1815V21.1304C28.6891 20.3737 27.9118 20.0002 26.8503 20.0002C25.038 20.0002 24.1047 21.0166 23.7887 22.0988C23.6713 22.5011 23.6309 23.2692 23.6309 24.4045C23.6309 25.4741 23.6408 26.4469 24.0127 27.1949C24.5329 28.2416 25.7957 28.8262 26.8503 28.8262C27.8725 28.8262 28.7398 28.4298 29.3402 27.7424V28.2733C29.3402 28.8973 29.1263 29.3071 28.7272 29.6311C28.3271 29.956 27.8254 30.1551 27.1287 30.1551C26.4971 30.1551 25.8914 29.8104 25.5464 29.5705L24.2615 30.8554C25.0944 31.531 26.0905 31.9909 27.1654 31.9998C28.3045 32.0092 29.221 31.664 30.0242 31.0327C30.7931 30.4281 31.2779 29.2912 31.2779 28.0855V20.1815H29.3402Z" fill="#FFFFFF"></path></svg>