<svg xmlns:xlink="http://www.w3.org/1999/xlink" xmlns="http://www.w3.org/2000/svg" width="48" height="48" viewBox="0 0 48 48" fill="none"><path d="M0 24C0 10.7452 10.7452 0 24 0C37.2548 0 48 10.7452 48 24C48 37.2548 37.2548 48 24 48C10.7452 48 0 37.2548 0 24Z" fill="#3F0E40"></path><path fill-rule="evenodd" clip-rule="evenodd" d="M17.6955 26.8829C17.6955 28.151 16.6705 29.176 15.4024 29.176C14.1343 29.176 13.1094 28.151 13.1094 26.8829C13.1094 25.6148 14.1343 24.5898 15.4024 24.5898H17.6955V26.8829ZM18.8419 26.8829C18.8419 25.6148 19.8669 24.5898 21.135 24.5898C22.4031 24.5898 23.428 25.6148 23.428 26.8829V32.6154C23.428 33.8835 22.4031 34.9085 21.135 34.9085C19.8669 34.9085 18.8419 33.8835 18.8419 32.6154V26.8829Z" fill="#E01E5A"></path><path fill-rule="evenodd" clip-rule="evenodd" d="M21.1346 17.6779C19.8665 17.6779 18.8415 16.653 18.8415 15.3849C18.8415 14.1168 19.8665 13.0918 21.1346 13.0918C22.4027 13.0918 23.4276 14.1168 23.4276 15.3849V17.6779H21.1346ZM21.1346 18.8418C22.4027 18.8418 23.4276 19.8667 23.4276 21.1348C23.4276 22.4029 22.4027 23.4279 21.1346 23.4279H15.3849C14.1168 23.4279 13.0918 22.4029 13.0918 21.1348C13.0918 19.8667 14.1168 18.8418 15.3849 18.8418H21.1346Z" fill="#36C5F0"></path><path fill-rule="evenodd" clip-rule="evenodd" d="M30.3233 21.1346C30.3233 19.8665 31.3483 18.8415 32.6164 18.8415C33.8845 18.8415 34.9095 19.8665 34.9095 21.1346C34.9095 22.4027 33.8845 23.4276 32.6164 23.4276H30.3233V21.1346ZM29.1769 21.1346C29.1769 22.4027 28.152 23.4276 26.8839 23.4276C25.6158 23.4276 24.5908 22.4027 24.5908 21.1346V15.3849C24.5908 14.1168 25.6158 13.0918 26.8839 13.0918C28.152 13.0918 29.1769 14.1168 29.1769 15.3849V21.1346Z" fill="#2EB67D"></path><path fill-rule="evenodd" clip-rule="evenodd" d="M26.8839 30.3224C28.152 30.3224 29.1769 31.3473 29.1769 32.6154C29.1769 33.8835 28.152 34.9085 26.8839 34.9085C25.6158 34.9085 24.5908 33.8835 24.5908 32.6154V30.3224H26.8839ZM26.8839 29.176C25.6158 29.176 24.5908 28.151 24.5908 26.8829C24.5908 25.6148 25.6158 24.5898 26.8839 24.5898H32.6336C33.9017 24.5898 34.9267 25.6148 34.9267 26.8829C34.9267 28.151 33.9017 29.176 32.6336 29.176H26.8839Z" fill="#ECB22E"></path></svg>