<svg xmlns:xlink="http://www.w3.org/1999/xlink" xmlns="http://www.w3.org/2000/svg" viewBox="0 0 200 29" fill="none" width="221" height="32"><path d="M37.4707 9.66615H56.1396V0.132812H37.4707V9.66615Z" fill="#C9CFD4"></path><path d="M0.166016 0.132812V9.66615H9.48382V28.7328H18.8016V9.66615H28.1527V0.132812H0.166016Z" fill="#C9CFD4"></path><path d="M28.1523 28.7327H56.139V19.1994H37.4701V9.66602H28.1523V28.7327Z" fill="#C9CFD4"></path><path d="M79.9332 7.33203H66.2227V11.2987H70.815V23.732H75.3408V11.2987H79.9332V7.33203Z" fill="#C9CFD4"></path><path d="M85.0908 11.166C81.8628 11.166 79.4668 13.3327 79.4668 17.5993C79.4668 21.366 81.4968 23.9994 85.1906 23.9994C87.1207 23.9994 88.6848 23.4993 90.1823 22.5993L88.5849 19.8994C87.3537 20.5327 86.4884 20.766 85.3903 20.766C84.2588 20.766 83.4601 20.166 83.2938 18.7993H90.5151C90.5483 18.5993 90.5483 18.3327 90.5483 17.966C90.5816 13.3993 88.4851 11.166 85.0908 11.166ZM83.3603 16.166C83.4934 14.9327 84.0259 14.2993 84.9909 14.2993C86.2222 14.2993 86.6548 14.9327 86.8545 16.166H83.3603Z" fill="#C9CFD4"></path><path d="M98.5689 20.566C97.4375 20.566 96.8384 19.566 96.8384 17.5993C96.8384 15.666 97.3709 14.566 98.4691 14.566C99.3676 14.566 99.7669 15.066 100.366 16.166L103.261 13.966C102.196 12.2327 100.865 11.166 98.5356 11.166C94.6088 11.166 92.6787 13.766 92.6787 17.5327C92.6787 21.666 94.8418 23.966 98.4358 23.966C100.599 23.966 101.93 23.1327 103.361 21.0327L100.699 18.9327C99.9 20.1327 99.3676 20.566 98.5689 20.566Z" fill="#C9CFD4"></path><path d="M113.078 11.166C111.614 11.166 110.749 11.666 109.983 12.2327V6.66602L105.757 8.36602V23.766H109.983V16.7327C109.983 15.1994 110.516 14.766 111.414 14.766C112.279 14.766 112.812 15.1993 112.812 16.766V23.766H117.038V16.2327C117.038 12.9994 115.74 11.166 113.078 11.166Z" fill="#C9CFD4"></path><path d="M127.188 20.0331C125.224 20.0331 124.426 18.0331 124.426 15.5331C124.426 12.9331 125.258 11.0331 127.155 11.0331C128.652 11.0331 129.218 11.9997 129.783 13.5331L133.91 11.8997C132.778 8.79974 131.181 7.06641 127.155 7.06641C122.762 7.06641 119.667 10.2664 119.667 15.5331C119.667 20.3997 122.263 23.9997 127.121 23.9997C131.015 23.9997 132.845 21.8997 133.943 19.7664L130.116 17.7331C129.218 19.2664 128.619 20.0331 127.188 20.0331Z" fill="#C9CFD4"></path><path d="M140.731 12.3327V11.4327H136.505V23.7327H140.731V17.0327C140.731 15.5327 141.363 15.0327 142.395 15.0327C143.227 15.0327 143.826 15.466 144.358 16.066L145.357 11.6994C144.858 11.3994 144.259 11.166 143.36 11.166C142.262 11.166 141.43 11.6327 140.731 12.3327Z" fill="#C9CFD4"></path><path d="M154.376 18.4669C154.376 20.0003 153.844 20.4336 152.978 20.4336C152.113 20.4336 151.581 20.0003 151.581 18.4336V11.4336H147.354V18.9669C147.354 22.2003 148.652 24.0003 151.348 24.0003C152.779 24.0003 153.677 23.5003 154.409 22.9336V23.7669H158.636V11.4669H154.409V18.4669" fill="#C9CFD4"></path><path d="M168.985 11.166C167.521 11.166 166.656 11.666 165.89 12.2327V11.3994H161.664V23.6994H165.89V16.666C165.89 15.1327 166.423 14.6994 167.321 14.6994C168.187 14.6994 168.719 15.1327 168.719 16.6994V23.6994H172.945V16.166C172.945 12.9993 171.681 11.166 168.985 11.166Z" fill="#C9CFD4"></path><path d="M181.331 20.566C180.199 20.566 179.6 19.566 179.6 17.5993C179.6 15.666 180.133 14.566 181.198 14.566C182.096 14.566 182.495 15.066 183.094 16.166L185.99 13.966C184.925 12.2327 183.594 11.166 181.264 11.166C177.337 11.166 175.407 13.766 175.407 17.5327C175.407 21.666 177.57 23.966 181.164 23.966C183.327 23.966 184.659 23.1327 186.089 21.0327L183.427 18.9327C182.695 20.1327 182.129 20.566 181.331 20.566Z" fill="#C9CFD4"></path><path d="M195.84 11.166C194.375 11.166 193.51 11.666 192.745 12.2327V6.66602L188.519 8.36602V23.766H192.745V16.7327C192.745 15.1994 193.277 14.766 194.176 14.766C195.041 14.766 195.573 15.1993 195.573 16.766V23.766H199.8V16.2327C199.833 12.9994 198.535 11.166 195.84 11.166Z" fill="#C9CFD4"></path></svg>