<svg xmlns:xlink="http://www.w3.org/1999/xlink" xmlns="http://www.w3.org/2000/svg" viewBox="0 0 105 29" fill="none" width="116" height="32"><g clip-path="url(#clip0_7493:1100)" fill="none"><path d="M0 7.05859H6.22127L9.84384 16.3266L13.5134 7.05859H19.5709L10.4497 28.9989H4.3539L6.85066 23.1851L0 7.05859Z" fill="#C9CFD4"></path><path d="M25.8813 6.69141C21.2069 6.69141 18.252 10.8836 18.252 15.0583C18.252 19.756 21.4917 23.4805 25.7926 23.4805C29.0009 23.4805 30.2106 21.5258 30.2106 21.5258V23.0485H35.6367V7.06045H30.2106V8.51392C30.2106 8.51392 28.8609 6.69141 25.8813 6.69141ZM27.0354 11.8293C29.1922 11.8293 30.3052 13.5359 30.3052 15.0758C30.3052 16.734 29.1128 18.3613 27.0354 18.3613C25.3137 18.3613 23.7579 16.9543 23.7579 15.1464C23.7579 13.313 25.0093 11.8293 27.0354 11.8293Z" fill="#C9CFD4"></path><path d="M37.5059 23.0477V0H43.1813V8.56858C43.1813 8.56858 44.5293 6.69269 47.3526 6.69269C50.8061 6.69269 52.8295 9.26582 52.8295 12.9427V23.0477H47.1956V14.327C47.1956 13.0826 46.6029 11.8805 45.2603 11.8805C43.8936 11.8805 43.1813 13.1008 43.1813 14.327V23.0477H37.5059Z" fill="#C9CFD4"></path><path d="M62.5053 6.69336C57.1523 6.69336 53.9648 10.7638 53.9648 15.1248C53.9648 20.0878 57.8241 23.4806 62.5255 23.4806C67.0824 23.4806 71.0698 20.2418 71.0698 15.2081C71.0698 9.70036 66.8949 6.69336 62.5053 6.69336ZM62.5564 11.8765C64.4473 11.8765 65.7556 13.4513 65.7556 15.1308C65.7556 16.5632 64.5365 18.33 62.5564 18.33C60.7421 18.33 59.3805 16.8746 59.3805 15.1151C59.3805 13.4202 60.5125 11.8765 62.5564 11.8765Z" fill="#C9CFD4"></path><path d="M80.5248 6.69336C75.1718 6.69336 71.9844 10.7638 71.9844 15.1248C71.9844 20.0878 75.8436 23.4806 80.5451 23.4806C85.1019 23.4806 89.0893 20.2418 89.0893 15.2081C89.0893 9.70036 84.9144 6.69336 80.5248 6.69336ZM80.5759 11.8765C82.4668 11.8765 83.7751 13.4513 83.7751 15.1308C83.7751 16.5632 82.556 18.33 80.5759 18.33C78.7616 18.33 77.4 16.8746 77.4 15.1151C77.4 13.4202 78.532 11.8765 80.5759 11.8765Z" fill="#C9CFD4"></path><path d="M93.5675 23.387C95.6489 23.387 97.3362 21.6997 97.3362 19.6183C97.3362 17.5369 95.6489 15.8496 93.5675 15.8496C91.4861 15.8496 89.7988 17.5369 89.7988 19.6183C89.7988 21.6997 91.4861 23.387 93.5675 23.387Z" fill="#C9CFD4"></path><path d="M98.5746 14.4654H91.79L97.8115 0H104.571L98.5746 14.4654Z" fill="#C9CFD4"></path></g><defs><clipPath id="clip0_7493:1100"><rect width="104.571" height="29" fill="white"></rect></clipPath></defs></svg>