<svg xmlns:xlink="http://www.w3.org/1999/xlink" xmlns="http://www.w3.org/2000/svg" width="48" height="48" viewBox="0 0 48 48" fill="none"><path d="M0 24C0 10.7452 10.7452 0 24 0C37.2548 0 48 10.7452 48 24C48 37.2548 37.2548 48 24 48C10.7452 48 0 37.2548 0 24Z" fill="#FF4A00"></path><g clip-path="url(#clip0)" fill="none"><path d="M26.7281 24.0057C26.7285 24.7924 26.5865 25.5727 26.3092 26.3088C25.5727 26.5862 24.7923 26.7283 24.0053 26.7284H23.9961C23.1858 26.7274 22.4094 26.5793 21.6929 26.3092C21.4154 25.5729 21.2734 24.7925 21.2736 24.0057V23.9961C21.2732 23.2096 21.415 22.4294 21.6921 21.6933C22.4285 21.4154 23.2091 21.2733 23.9962 21.2736H24.0054C24.7924 21.2732 25.5729 21.4154 26.3093 21.6932C26.5867 22.4293 26.7286 23.2094 26.7282 23.996V24.0056L26.7281 24.0057ZM34.7584 22.1827H28.3906L32.8931 17.6799C32.5397 17.1835 32.1455 16.7174 31.7146 16.2865V16.2862C31.2836 15.8558 30.8177 15.4619 30.3215 15.1087L25.8187 19.6115V13.2437C25.2198 13.1429 24.6136 13.0921 24.0063 13.0918L23.9951 13.0918C23.3774 13.0921 22.7723 13.1446 22.1827 13.2437V19.6115L17.6799 15.1087C17.1837 15.4618 16.7179 15.856 16.2876 16.287L16.2852 16.2887C15.855 16.719 15.4613 17.1844 15.1083 17.6799L19.6114 22.1827H13.2437C13.2437 22.1827 13.0918 23.3787 13.0918 23.9971V24.0046C13.0918 24.623 13.1442 25.2291 13.2437 25.819H19.6115L15.1084 30.3219C15.8167 31.3159 16.6858 32.185 17.6799 32.8934L22.1827 28.3903V34.7584C22.7809 34.8587 23.3864 34.9094 23.993 34.91H24.0084C24.6149 34.9094 25.2204 34.8588 25.8186 34.7584V28.3903L30.3219 32.8934C30.8179 32.5401 31.2838 32.1461 31.7146 31.7156L31.7156 31.7146C32.1459 31.2837 32.5398 30.8178 32.8931 30.3219L28.3899 25.819H34.7584C34.8576 25.2301 34.9093 24.6259 34.91 24.0088V23.993C34.9093 23.3759 34.8576 22.7717 34.7584 22.1827Z" fill="#FFFFFF"></path></g><defs><clipPath id="clip0"><rect width="21.8182" height="21.8182" fill="white" transform="translate(13.0918 13.0918)"></rect></clipPath></defs></svg>